REM DIRINDEX 1\2,1\3,1\4,1\5
REM DIRNAME folder01,folder02,folder03,folder04,folder05
TITLE ""
FILE "P1Q_t_0472-0481.mp3" MP3
  TRACK 01 AUDIO
    TITLE "3:cjc005_2318"
    INDEX 01 00:00:00
  TRACK 02 AUDIO
    TITLE "0:"
    INDEX 01 00:01:07
  TRACK 03 AUDIO
    TITLE "4:cjc005_2319"
    INDEX 01 00:01:30
  TRACK 04 AUDIO
    TITLE "0:"
    INDEX 01 00:03:00
  TRACK 05 AUDIO
    TITLE "5:cjc005_2320"
    INDEX 01 00:03:21
  TRACK 06 AUDIO
    TITLE "0:"
    INDEX 01 00:07:15
  TRACK 07 AUDIO
    TITLE "3:cjc005_2321"
    INDEX 01 00:07:66
  TRACK 08 AUDIO
    TITLE "0:"
    INDEX 01 00:09:10
  TRACK 09 AUDIO
    TITLE "4:cjc005_2322"
    INDEX 01 00:09:32
  TRACK 10 AUDIO
    TITLE "0:"
    INDEX 01 00:11:09
  TRACK 11 AUDIO
    TITLE "5:cjc005_2323"
    INDEX 01 00:11:37
  TRACK 12 AUDIO
    TITLE "0:"
    INDEX 01 00:14:27
  TRACK 13 AUDIO
    TITLE "3:cjc005_2324"
    INDEX 01 00:15:03
  TRACK 14 AUDIO
    TITLE "0:"
    INDEX 01 00:16:22
  TRACK 15 AUDIO
    TITLE "4:cjc005_2325"
    INDEX 01 00:16:44
  TRACK 16 AUDIO
    TITLE "0:"
    INDEX 01 00:18:33
  TRACK 17 AUDIO
    TITLE "5:cjc005_2326"
    INDEX 01 00:18:64
  TRACK 18 AUDIO
    TITLE "0:"
    INDEX 01 00:23:03
  TRACK 19 AUDIO
    TITLE "3:cjc005_2327"
    INDEX 01 00:23:40
  TRACK 20 AUDIO
    TITLE "0:"
    INDEX 01 00:24:51
  TRACK 21 AUDIO
    TITLE "4:cjc005_2328"
    INDEX 01 00:25:07
  TRACK 22 AUDIO
    TITLE "0:"
    INDEX 01 00:26:24
  TRACK 23 AUDIO
    TITLE "5:cjc005_2329"
    INDEX 01 00:26:52
  TRACK 24 AUDIO
    TITLE "0:"
    INDEX 01 00:31:12
  TRACK 25 AUDIO
    TITLE "3:cjc005_2330"
    INDEX 01 00:31:65
  TRACK 26 AUDIO
    TITLE "0:"
    INDEX 01 00:33:03
  TRACK 27 AUDIO
    TITLE "4:cjc005_2331"
    INDEX 01 00:33:26
  TRACK 28 AUDIO
    TITLE "0:"
    INDEX 01 00:34:69
  TRACK 29 AUDIO
    TITLE "5:cjc005_2332"
    INDEX 01 00:35:21
  TRACK 30 AUDIO
    TITLE "0:"
    INDEX 01 00:38:43
  TRACK 31 AUDIO
    TITLE "3:cjc005_2333"
    INDEX 01 00:39:19
  TRACK 32 AUDIO
    TITLE "0:"
    INDEX 01 00:40:30
  TRACK 33 AUDIO
    TITLE "4:cjc005_2334"
    INDEX 01 00:40:58
  TRACK 34 AUDIO
    TITLE "0:"
    INDEX 01 00:42:61
  TRACK 35 AUDIO
    TITLE "5:cjc005_2335"
    INDEX 01 00:43:11
  TRACK 36 AUDIO
    TITLE "0:"
    INDEX 01 00:46:27
  TRACK 37 AUDIO
    TITLE "3:cjc005_2336"
    INDEX 01 00:47:05
  TRACK 38 AUDIO
    TITLE "0:"
    INDEX 01 00:48:22
  TRACK 39 AUDIO
    TITLE "4:cjc005_2337"
    INDEX 01 00:48:42
  TRACK 40 AUDIO
    TITLE "0:"
    INDEX 01 00:49:67
  TRACK 41 AUDIO
    TITLE "5:cjc005_2338"
    INDEX 01 00:50:15
  TRACK 42 AUDIO
    TITLE "0:"
    INDEX 01 00:53:70
  TRACK 43 AUDIO
    TITLE "3:cjc005_2339"
    INDEX 01 00:54:52
  TRACK 44 AUDIO
    TITLE "0:"
    INDEX 01 00:56:04
  TRACK 45 AUDIO
    TITLE "4:cjc005_2340"
    INDEX 01 00:56:25
  TRACK 46 AUDIO
    TITLE "0:"
    INDEX 01 00:57:54
  TRACK 47 AUDIO
    TITLE "5:cjc005_2341"
    INDEX 01 00:57:74
  TRACK 48 AUDIO
    TITLE "0:"
    INDEX 01 01:02:42
  TRACK 49 AUDIO
    TITLE "3:cjc005_2342"
    INDEX 01 01:03:14
  TRACK 50 AUDIO
    TITLE "0:"
    INDEX 01 01:04:27
  TRACK 51 AUDIO
    TITLE "4:cjc005_2343"
    INDEX 01 01:04:50
  TRACK 52 AUDIO
    TITLE "0:"
    INDEX 01 01:05:68
  TRACK 53 AUDIO
    TITLE "5:cjc005_2344"
    INDEX 01 01:06:16
  TRACK 54 AUDIO
    TITLE "0:"
    INDEX 01 01:10:10
  TRACK 55 AUDIO
    TITLE "3:cjc005_2345"
    INDEX 01 01:10:59
  TRACK 56 AUDIO
    TITLE "0:"
    INDEX 01 01:12:13
  TRACK 57 AUDIO
    TITLE "4:cjc005_2346"
    INDEX 01 01:12:36
  TRACK 58 AUDIO
    TITLE "0:"
    INDEX 01 01:14:37
  TRACK 59 AUDIO
    TITLE "5:cjc005_2347"
    INDEX 01 01:14:61
  TRACK 60 AUDIO
    TITLE "0:"
    INDEX 01 01:19:03
